<svg xmlns="http://www.w3.org/2000/svg" width="32" height="32" viewBox="0 0 32 32">
  <path fill="#00af91" d="M6.5 5h3v8.5h-3zM10.5 5h3v8.5h-3zM14.5 5h3v8.5h-3z"/>
  <path fill="#00af91" d="M19.5 8.5c0 1.933-1.567 3.5-3.5 3.5s-3.5-1.567-3.5-3.5c0-1.433 0.867-2.667 2.1-3.2 0.417-0.183 0.883-0.3 1.4-0.3 1.933 0 3.5 1.567 3.5 3.5z"/>
  <path fill="#00af91" d="M22.5 13.5c1.933 0 3.5 1.567 3.5 3.5s-1.567 3.5-3.5 3.5h-13c-1.933 0-3.5-1.567-3.5-3.5s1.567-3.5 3.5-3.5c0.517 0 0.983 0.117 1.4 0.3-0.25 0.533-0.4 1.133-0.4 1.767 0 2.3 1.867 4.167 4.167 4.167h3.667c2.3 0 4.167-1.867 4.167-4.167 0-0.633-0.15-1.233-0.4-1.767 0.417-0.183 0.883-0.3 1.4-0.3z"/>
  <path fill="#005591" d="M20 23h-2v2h-1v-2h-2v-1h2v-2h1v2h2z"/>
  <path fill="#005591" d="M24.5 22h-1.5v1.5h1.5v1.5h1.5v-1.5h1.5v-1.5h-1.5v-1.5h-1.5z"/>
  <path fill="#005591" d="M17 27l-1.75-3h-1.5l-1.75 3h1.25l0.25-0.5h1.75l0.25 0.5zM14 25.5l0.5-1 0.5 1z"/>
  <path fill="#005591" d="M9 24v3h1.5v-0.844l0.172 0.172c0.303 0.303 0.709 0.484 1.156 0.547 0.059 0.009 0.116 0.016 0.172 0.016v-1.5c-0.031 0-0.063-0.003-0.094-0.016-0.125-0.034-0.238-0.116-0.297-0.25-0.022-0.044-0.031-0.091-0.031-0.125h1.5v-1h-3z"/>
</svg>