<svg xmlns="http://www.w3.org/2000/svg" width="260" height="150" viewBox="0 0 260 150">
  <g fill="none" fill-rule="evenodd">
    <!-- W -->
    <path fill="#FFFFFF" d="M30,30 L40,30 L40,80 L30,80 Z M45,30 L55,30 L55,80 L45,80 Z M60,30 L70,30 L70,80 L60,80 Z"/>
    <!-- e in hands -->
    <path fill="#FFFFFF" d="M90,50 C90,59.941 81.941,68 72,68 C62.059,68 54,59.941 54,50 C54,42.268 58.735,35.732 65.61,33.4 C68.258,32.532 71.074,32.1 74,32.1 C83.941,32.1 92,40.159 92,50.1 Z"/>
    <!-- Hands -->
    <path fill="#FFFFFF" d="M110,75 C120,75 128,83 128,93 C128,103 120,111 110,111 L44,111 C34,111 26,103 26,93 C26,83 34,75 44,75 C47.1,75 50,75.7 52.5,77 C51.5,80 51,83 51,86 C51,98.7 61.3,109 74,109 L85,109 C97.7,109 108,98.7 108,86 C108,83 107.5,80 106.5,77 C107.5,75.7 110.4,75 110,75 Z"/>
    <!-- RGU -->
    <path fill="#FFFFFF" d="M130,30 L162,30 C175,30 185,40 185,53 C185,66 175,76 162,76 L145,76 L145,110 L130,110 L130,30 Z M145,45 L145,61 L162,61 C167,61 170,58 170,53 C170,48 167,45 162,45 L145,45 Z"/>
    <path fill="#FFFFFF" d="M190,30 L225,30 C238,30 248,40 248,53 C248,66 238,76 225,76 L205,76 L205,110 L190,110 L190,30 Z M205,45 L205,61 L225,61 C230,61 233,58 233,53 C233,48 230,45 225,45 L205,45 Z"/>
    <path fill="#FFFFFF" d="M253,70 L253,30 L238,30 L238,70 C238,87 223,101 205,101 L205,116 C231,116 253,95 253,70 Z"/>
    <!-- YARAM -->
    <path fill="#FFFFFF" d="M130,120 L138,120 L145,135 L152,120 L160,120 L145,145 L145,150 L138,150 L138,145 L130,120 Z"/>
    <path fill="#FFFFFF" d="M163,120 L182,120 L182,127 L170,127 L170,130 L182,130 L182,137 L170,137 L170,143 L182,143 L182,150 L163,150 L163,120 Z"/>
    <path fill="#FFFFFF" d="M185,120 L192,120 L192,143 L202,143 L202,150 L185,150 L185,120 Z"/>
    <path fill="#FFFFFF" d="M205,120 L212,120 L212,128 L214,128 L220,120 L229,120 L220,132 L229,150 L220,150 L214,137 L212,137 L212,150 L205,150 L205,120 Z"/>
  </g>
</svg>